# xmcd
#
# Track frame offsets:
#	150
#	9114
#	21264
#	33714
#	43539
#	55314
#	68064
#	80289
#	92214
#	104739
#	123039
#	145089
#	168114
#	184648
#	198975
#	210750
#	235333
#	250178
#
# Disc length: 3507 seconds
#
# Revision: 0
# Processed by: cddbd v1.5.2PL0 Copyright (c) Steve Scherf et al.
# Submitted via: dBpowerAMP V4.0
#
DISCID=e40db112
DTITLE=Eddie Boyd - Vacation From The Blues [+ 5 Bonus Tracks] [Vinyl-Rip]
DYEAR=1900
DGENRE=Blues
TTITLE0=Vacation From The Blues
TTITLE1=I'm Coming Home
TTITLE2=Where You Belong
TTITLE3=Thank You Baby
TTITLE4=24 Hours Of Fear
TTITLE5=You've Got To Reap What You Sow
TTITLE6=Come On Home
TTITLE7=Five Long Years
TTITLE8=It's Too Bad
TTITLE9=Hello Stranger
TTITLE10=Talkin' To The Operator
TTITLE11=Praise To My Baby
TTITLE12=Brotherhood
TTITLE13=Third Degree [Bonus]
TTITLE14=Big Boat (With Fleetwood Mac) [Bonus]
TTITLE15=Just The Blues (With Fleetwood Mac) [Bonus]
TTITLE16=Five Long Years [Bonus]
TTITLE17=The Big Question [Bonus]
EXTD=
EXTT0=
EXTT1=
EXTT2=
EXTT3=
EXTT4=
EXTT5=
EXTT6=
EXTT7=
EXTT8=
EXTT9=
EXTT10=
EXTT11=
EXTT12=
EXTT13=
EXTT14=
EXTT15=
EXTT16=
EXTT17=
PLAYORDER=
